<?xml version="1.0" encoding="UTF-8" standalone="no"?><!DOCTYPE svg PUBLIC "-//W3C//DTD SVG 1.1//EN" "http://www.w3.org/Graphics/SVG/1.1/DTD/svg11.dtd"><svg width="100%" height="100%" viewBox="0 0 2084 1788" version="1.1" xmlns="http://www.w3.org/2000/svg" xmlns:xlink="http://www.w3.org/1999/xlink" xml:space="preserve" xmlns:serif="http://www.serif.com/" style="fill-rule:evenodd;clip-rule:evenodd;stroke-linecap:round;stroke-miterlimit:3;"><rect x="-0" y="-4.167" width="2083.33" height="1791.67" style="fill:url(#_Linear1);"/><g id="NanoBus"><g><path d="M556.466,1218.97l0,-659.535c19.074,11.377 41.211,17.889 64.813,17.889c23.602,0 45.738,-6.512 64.812,-17.889l0,659.535c-19.074,-11.214 -41.21,-17.632 -64.812,-17.632c-23.602,-0 -45.739,6.418 -64.813,17.632Z" style="fill:#6eccee;"/><path d="M1399.03,1218.97l0,-672.127c19.074,11.376 41.211,17.888 64.813,17.888c23.602,0 45.739,-6.512 64.813,-17.888l-0,672.127c-19.074,-11.214 -41.211,-17.632 -64.813,-17.632c-23.602,-0 -45.739,6.418 -64.813,17.632Z" style="fill:#6eccee;"/><path d="M1463.84,1182.67l-0,-618.304" style="fill:none;stroke:#fff;stroke-width:33.33px;stroke-dasharray:3.33,50,0,0;"/><path d="M1384.55,1332.39l-746.311,-746.311c21.532,-5.443 41.79,-16.492 58.479,-33.18c16.689,-16.689 27.737,-36.947 33.18,-58.479l746.311,746.311c-21.416,5.558 -41.608,16.673 -58.297,33.362c-16.689,16.689 -27.803,36.881 -33.362,58.297Z" style="fill:#6eccee;"/><path d="M1454.83,1314.37c0,-0 -818.056,-818.057 -818.056,-818.057" style="fill:none;stroke:#fff;stroke-width:33.33px;stroke-dasharray:3.33,50,0,0;"/><path d="M621.279,1167.12c-0,-0 -0,-559.224 -0,-559.224" style="fill:none;stroke:#fff;stroke-width:33.33px;stroke-dasharray:3.33,50,0,0;"/><g><path d="M1625.88,454.181c290.778,-0 248.384,-0 248.384,-0" style="fill:#6eccee;stroke:url(#_Linear2);stroke-width:33.33px;"/><circle cx="1872.16" cy="454.181" r="32.406" style="fill:#0c96c4;"/><path d="M1751.98,405.571c19.242,-47.484 65.83,-81.015 120.188,-81.015c71.542,-0 129.625,58.083 129.625,129.625c0,71.542 -58.083,129.625 -129.625,129.625c-54.358,0 -100.946,-33.531 -120.188,-81.016l19.713,0c18.081,37.273 56.298,62.996 100.475,62.996c61.596,0 111.605,-50.009 111.605,-111.605c-0,-61.597 -50.009,-111.605 -111.605,-111.605c-44.177,-0 -82.394,25.723 -100.475,62.995l-19.713,0Z" style="fill:#0c96c4;"/></g><g><path d="M459.247,1329.15c-290.778,0 -248.384,0 -248.384,0" style="fill:#6eccee;stroke:url(#_Linear3);stroke-width:33.33px;"/><circle cx="212.959" cy="1329.15" r="32.406" style="fill:#0c96c4;"/><path d="M333.147,1377.76c-19.243,47.485 -65.831,81.016 -120.188,81.016c-71.542,-0 -129.626,-58.083 -129.626,-129.626c0,-71.542 58.084,-129.625 129.626,-129.625c54.357,-0 100.945,33.531 120.188,81.016l-19.713,-0c-18.082,-37.273 -56.298,-62.996 -100.475,-62.996c-61.597,0 -111.605,50.009 -111.605,111.605c-0,61.597 50.008,111.605 111.605,111.605c44.177,0 82.393,-25.723 100.475,-62.995l19.713,-0Z" style="fill:#0c96c4;"/></g><circle cx="621.279" cy="1329.15" r="129.625" style="fill:#fff;"/><path d="M621.279,1199.53c71.542,-0 129.625,58.083 129.625,129.625c0,71.543 -58.083,129.626 -129.625,129.626c-71.542,-0 -129.626,-58.083 -129.626,-129.626c0,-71.542 58.084,-129.625 129.626,-129.625Zm-0,33.333c53.145,0 96.292,43.147 96.292,96.292c-0,53.145 -43.147,96.292 -96.292,96.292c-53.145,0 -96.292,-43.147 -96.292,-96.292c-0,-53.145 43.147,-96.292 96.292,-96.292Z" style="fill:#6eccee;"/><circle cx="621.279" cy="473.625" r="129.625" style="fill:#fff;"/><path d="M621.279,343.999c71.542,0 129.625,58.084 129.625,129.626c0,71.542 -58.083,129.625 -129.625,129.625c-71.542,0 -129.626,-58.083 -129.626,-129.625c0,-71.542 58.084,-129.626 129.626,-129.626Zm-0,33.334c53.145,-0 96.292,43.147 96.292,96.292c-0,53.145 -43.147,96.292 -96.292,96.292c-53.145,-0 -96.292,-43.147 -96.292,-96.292c-0,-53.145 43.147,-96.292 96.292,-96.292Z" style="fill:#6eccee;"/><circle cx="1463.84" cy="1329.15" r="129.625" style="fill:#fff;"/><path d="M1463.84,1199.53c71.542,-0 129.625,58.083 129.625,129.625c0,71.543 -58.083,129.626 -129.625,129.626c-71.542,-0 -129.626,-58.083 -129.626,-129.626c0,-71.542 58.084,-129.625 129.626,-129.625Zm-0,33.333c53.145,0 96.292,43.147 96.292,96.292c-0,53.145 -43.147,96.292 -96.292,96.292c-53.145,0 -96.292,-43.147 -96.292,-96.292c-0,-53.145 43.147,-96.292 96.292,-96.292Z" style="fill:#6eccee;"/><circle cx="1463.84" cy="454.181" r="129.625" style="fill:#fff;"/><path d="M1463.84,324.556c71.542,-0 129.625,58.083 129.625,129.625c0,71.542 -58.083,129.625 -129.625,129.625c-71.542,0 -129.626,-58.083 -129.626,-129.625c0,-71.542 58.084,-129.625 129.626,-129.625Zm-0,33.333c53.145,-0 96.292,43.147 96.292,96.292c-0,53.145 -43.147,96.292 -96.292,96.292c-53.145,0 -96.292,-43.147 -96.292,-96.292c-0,-53.145 43.147,-96.292 96.292,-96.292Z" style="fill:#6eccee;"/></g></g><defs><linearGradient id="_Linear1" x1="0" y1="0" x2="1" y2="0" gradientUnits="userSpaceOnUse" gradientTransform="matrix(5.95782e-14,1791.67,-972.985,1.09708e-13,1064.56,-4.16667)"><stop offset="0" style="stop-color:#2a2039;stop-opacity:1"/><stop offset="1" style="stop-color:#33294f;stop-opacity:1"/></linearGradient><linearGradient id="_Linear2" x1="0" y1="0" x2="1" y2="0" gradientUnits="userSpaceOnUse" gradientTransform="matrix(254.657,0,0,501.694,1621.76,454.181)"><stop offset="0" style="stop-color:#6eccee;stop-opacity:1"/><stop offset="0.5" style="stop-color:#0c96c4;stop-opacity:1"/><stop offset="1" style="stop-color:#0c96c4;stop-opacity:1"/></linearGradient><linearGradient id="_Linear3" x1="0" y1="0" x2="1" y2="0" gradientUnits="userSpaceOnUse" gradientTransform="matrix(-254.657,3.11865e-14,-6.14398e-14,-501.694,463.359,1329.15)"><stop offset="0" style="stop-color:#6eccee;stop-opacity:1"/><stop offset="0.5" style="stop-color:#0c96c4;stop-opacity:1"/><stop offset="1" style="stop-color:#0c96c4;stop-opacity:1"/></linearGradient></defs></svg>