<svg width="36" height="52" viewBox="0 0 36 52" fill="none" xmlns="http://www.w3.org/2000/svg">
<path d="M25.4412 25.7786C25.4412 25.76 25.4395 25.7431 25.4378 25.7246C25.3957 24.8616 25.1952 23.997 24.8497 23.1696L18.0019 30.0324L16.1838 28.2103C15.1711 27.1954 15.1711 25.5472 16.1838 24.5323L21.655 19.0492C20.8007 18.1829 19.9447 17.3199 19.0871 16.4587C18.8158 16.1851 18.5445 15.9116 18.2715 15.638L17.9935 15.3594L17.9918 15.3611L17.9901 15.3594L17.7121 15.638C17.4442 15.9065 17.1763 16.1784 16.9083 16.4469C15.5772 17.781 14.2511 19.1184 12.9334 20.466C11.4692 21.9638 10.6385 23.8484 10.5475 25.7246C10.5458 25.7431 10.5458 25.76 10.5441 25.7786C10.5424 25.8377 10.5407 25.8968 10.5391 25.9559C10.5391 25.9964 10.5391 26.037 10.5391 26.0775C10.5391 26.1248 10.5391 26.1704 10.5391 26.2177C10.5407 26.3055 10.5441 26.3916 10.5492 26.4794C10.5509 26.5064 10.5525 26.5334 10.5542 26.5605C10.5593 26.6398 10.566 26.7175 10.5744 26.7952C10.5761 26.8121 10.5778 26.8273 10.5795 26.8442C10.7092 28.0026 11.1339 29.1256 11.8871 30.1185C13.6967 32.5063 15.9698 34.5412 17.9328 36.62L17.9884 36.6791L17.9901 36.6774L17.9918 36.6791L18.0474 36.62C20.0104 34.5412 22.2835 32.5063 24.0932 30.1185C24.8464 29.1256 25.271 28.0026 25.4007 26.8442C25.4024 26.8273 25.4041 26.8121 25.4058 26.7952C25.4142 26.7175 25.421 26.6381 25.426 26.5605C25.4277 26.5334 25.4294 26.5064 25.4311 26.4794C25.4361 26.3916 25.4395 26.3055 25.4412 26.2177C25.4429 26.1704 25.4412 26.1248 25.4412 26.0775C25.4412 26.037 25.4412 25.9964 25.4412 25.9559C25.4462 25.8968 25.4429 25.8377 25.4412 25.7786Z" fill="url(#paint0_linear_536_13689)"/>
<path d="M22.8757 12.9355C23.6878 13.7529 24.5017 14.5702 25.3155 15.3875L28.9585 11.7366C28.9501 11.7281 28.94 11.718 28.9315 11.7095C28.7984 11.5761 28.6653 11.4427 28.5322 11.3093C27.4538 10.2252 26.3754 9.14104 25.2953 8.05859L21.6523 11.7095L22.697 12.7565C22.756 12.8156 22.8167 12.8764 22.8757 12.9355Z" fill="#FC9526"/>
<path d="M35.8346 25.7084C35.8329 25.646 35.833 25.5852 35.8313 25.5227C35.8296 25.4534 35.8262 25.3859 35.8228 25.3167C35.8195 25.2457 35.8178 25.1765 35.8144 25.1056C35.8127 25.0701 35.8094 25.0347 35.8077 24.9992C35.7875 24.6665 35.7571 24.3338 35.7184 24.0012C35.715 23.9758 35.7133 23.9522 35.7099 23.9269C35.6965 23.8222 35.683 23.7175 35.6678 23.6111C35.6644 23.5841 35.6611 23.557 35.656 23.53C35.6409 23.4236 35.624 23.3173 35.6055 23.2109C35.6021 23.1872 35.597 23.1636 35.5937 23.1399C35.5751 23.0302 35.5549 22.9204 35.5347 22.809C35.5313 22.7921 35.528 22.7752 35.5246 22.7583C35.5027 22.6418 35.4791 22.5253 35.4538 22.4087C35.4521 22.4037 35.4521 22.3986 35.4505 22.3935C34.9399 20.0209 33.9289 17.7108 32.4141 15.5881L28.6734 19.337C31.9625 24.6192 31.1756 30.7458 26.3161 35.6261C23.6369 38.3179 17.9956 44.0122 17.9956 44.0122C17.9956 44.0122 12.3542 38.3179 9.67506 35.6261C3.88373 29.8086 3.87531 22.2196 9.66327 16.4021C10.8141 15.2453 11.9667 14.0886 13.1175 12.9335L13.1158 12.9318L14.6458 11.3985C15.7528 10.2873 16.8616 9.17616 17.9669 8.06331C17.9686 8.065 17.9686 8.065 17.9703 8.06669L17.9956 8.04136L17.9989 8.04473L21.647 4.38872C21.6453 4.38703 21.6453 4.38703 21.6436 4.38534L21.6453 4.38365C21.5863 4.32624 21.5307 4.2722 21.4717 4.21478C20.7809 3.52242 20.0934 2.83006 19.4025 2.1377L19.3688 2.10561C19.32 2.05664 19.2694 2.00598 19.2206 1.95701C19.2121 1.94856 19.202 1.94012 19.1936 1.93167L18.0495 0.796875L18.0478 0.798564V0.796875L17.9973 0.847536L17.9467 0.796875L17.945 0.798564L17.9433 0.796875L16.7992 1.93336C16.7908 1.94181 16.7807 1.95025 16.7723 1.95869C16.7234 2.00767 16.6729 2.05833 16.624 2.1073L16.5903 2.13938C15.8994 2.83175 15.212 3.52411 14.5211 4.21647C14.4621 4.27389 14.4065 4.32793 14.3476 4.38534L14.3492 4.38703C14.3459 4.39041 14.3425 4.39379 14.3391 4.39716L14.3425 4.40054C11.4628 7.2882 8.5815 10.1742 5.71026 13.0686C2.98562 15.8144 1.26524 19.0415 0.544064 22.3952C0.542379 22.4003 0.54238 22.407 0.540695 22.4121C0.515421 22.5286 0.491833 22.6452 0.469929 22.7617C0.466559 22.7786 0.463184 22.7971 0.459814 22.814C0.439594 22.9238 0.419378 23.0336 0.400843 23.1433C0.397473 23.167 0.392417 23.1906 0.389047 23.2142C0.372197 23.3206 0.355349 23.427 0.338499 23.5334C0.335129 23.5604 0.331758 23.5874 0.326703 23.6145C0.311538 23.7192 0.298058 23.8239 0.284578 23.9286C0.281208 23.9539 0.27952 23.9792 0.27615 24.0045C0.26267 24.1126 0.250876 24.2207 0.240766 24.3271C0.240766 24.3288 0.240766 24.3288 0.240766 24.3305C0.218861 24.5534 0.202012 24.7763 0.188532 24.9992C0.186847 25.0347 0.183475 25.0701 0.18179 25.1056C0.17842 25.1748 0.175052 25.2457 0.173367 25.315C0.169997 25.3842 0.166624 25.4534 0.164939 25.521C0.163254 25.5818 0.161571 25.6443 0.161571 25.7051C0.159886 25.7827 0.158203 25.8604 0.158203 25.9381C0.158203 25.9938 0.158203 26.0496 0.158203 26.107C0.158203 26.1914 0.159886 26.2758 0.161571 26.3603C0.163256 26.4109 0.163254 26.4616 0.164939 26.5123C0.166624 26.6034 0.169999 26.6963 0.175054 26.7875C0.176739 26.8314 0.17842 26.8753 0.18179 26.9175C0.186845 27.0205 0.193588 27.1219 0.200328 27.2249C0.202013 27.2587 0.205379 27.2907 0.207064 27.3245C0.215489 27.4461 0.227288 27.566 0.237398 27.6876C0.239083 27.7028 0.240766 27.718 0.240766 27.7332C0.635055 31.7455 2.438 35.6717 5.65297 38.9224C9.32627 42.6376 13.0164 46.3375 16.7049 50.0374C16.715 50.0475 16.7251 50.0577 16.7352 50.0678C16.8953 50.2265 17.0638 50.3751 17.2356 50.5254H17.2306L18.0006 51.1992L18.7993 50.5001H18.7926C18.9527 50.3582 19.1144 50.2181 19.2644 50.0678C19.2745 50.0577 19.2846 50.0475 19.2947 50.0374C22.9832 46.3375 26.6733 42.6376 30.3466 38.9224C33.5616 35.6717 35.3645 31.7455 35.7588 27.7332C35.7605 27.718 35.7622 27.7028 35.7622 27.6876C35.774 27.5677 35.7841 27.4461 35.7925 27.3262C35.7942 27.2924 35.7976 27.2587 35.7993 27.2249C35.806 27.1219 35.8127 27.0205 35.8178 26.9175C35.8195 26.8736 35.8212 26.8297 35.8245 26.7858C35.8279 26.6946 35.8313 26.6018 35.8346 26.5106C35.8363 26.4599 35.838 26.4092 35.838 26.3586C35.8397 26.2741 35.8397 26.1897 35.8414 26.1053C35.8414 26.0496 35.8414 25.9921 35.8414 25.9364C35.838 25.8638 35.8363 25.7861 35.8346 25.7084Z" fill="url(#paint1_linear_536_13689)"/>
<defs>
<linearGradient id="paint0_linear_536_13689" x1="19.8052" y1="36.3599" x2="16.1516" y2="15.6845" gradientUnits="userSpaceOnUse">
<stop stop-color="#FA141B"/>
<stop offset="0.4585" stop-color="#FA3E1D"/>
<stop offset="0.5837" stop-color="#FB5A20"/>
<stop offset="0.7564" stop-color="#FB7A23"/>
<stop offset="0.9014" stop-color="#FC8E25"/>
<stop offset="1" stop-color="#FC9526"/>
</linearGradient>
<linearGradient id="paint1_linear_536_13689" x1="22.2896" y1="50.4457" x2="13.65" y2="1.55547" gradientUnits="userSpaceOnUse">
<stop stop-color="#FA141B"/>
<stop offset="0.4585" stop-color="#FA3E1D"/>
<stop offset="0.5837" stop-color="#FB5A20"/>
<stop offset="0.7564" stop-color="#FB7A23"/>
<stop offset="0.9014" stop-color="#FC8E25"/>
<stop offset="1" stop-color="#FC9526"/>
</linearGradient>
</defs>
</svg>
